<svg width="24" height="24" viewBox="0 0 24 24" fill="none" xmlns="http://www.w3.org/2000/svg">
<path d="M16.75 3.56V2C16.75 1.59 16.41 1.25 16 1.25C15.59 1.25 15.25 1.59 15.25 2V3.5H8.74999V2C8.74999 1.59 8.40999 1.25 7.99999 1.25C7.58999 1.25 7.24999 1.59 7.24999 2V3.56C4.54999 3.81 3.23999 5.42 3.03999 7.81C3.01999 8.1 3.25999 8.34 3.53999 8.34H20.46C20.75 8.34 20.99 8.09 20.96 7.81C20.76 5.42 19.45 3.81 16.75 3.56Z" fill="#A0AAB8"/>
<path d="M19.9999 9.83997H3.99988C3.44988 9.83997 2.99988 10.29 2.99988 10.84V17C2.99988 20 4.49988 22 7.99988 22H15.9999C19.4999 22 20.9999 20 20.9999 17V10.84C20.9999 10.29 20.5499 9.83997 19.9999 9.83997ZM9.20988 18.21C9.15988 18.25 9.10988 18.3 9.05988 18.33C8.99988 18.37 8.93988 18.4 8.87988 18.42C8.81988 18.45 8.75988 18.47 8.69988 18.48C8.62988 18.49 8.56988 18.5 8.49988 18.5C8.36988 18.5 8.23988 18.47 8.11988 18.42C7.98988 18.37 7.88988 18.3 7.78988 18.21C7.60988 18.02 7.49988 17.76 7.49988 17.5C7.49988 17.24 7.60988 16.98 7.78988 16.79C7.88988 16.7 7.98988 16.63 8.11988 16.58C8.29988 16.5 8.49988 16.48 8.69988 16.52C8.75988 16.53 8.81988 16.55 8.87988 16.58C8.93988 16.6 8.99988 16.63 9.05988 16.67C9.10988 16.71 9.15988 16.75 9.20988 16.79C9.38988 16.98 9.49988 17.24 9.49988 17.5C9.49988 17.76 9.38988 18.02 9.20988 18.21ZM9.20988 14.71C9.01988 14.89 8.75988 15 8.49988 15C8.23988 15 7.97988 14.89 7.78988 14.71C7.60988 14.52 7.49988 14.26 7.49988 14C7.49988 13.74 7.60988 13.48 7.78988 13.29C8.06988 13.01 8.50988 12.92 8.87988 13.08C9.00988 13.13 9.11988 13.2 9.20988 13.29C9.38988 13.48 9.49988 13.74 9.49988 14C9.49988 14.26 9.38988 14.52 9.20988 14.71ZM12.7099 18.21C12.5199 18.39 12.2599 18.5 11.9999 18.5C11.7399 18.5 11.4799 18.39 11.2899 18.21C11.1099 18.02 10.9999 17.76 10.9999 17.5C10.9999 17.24 11.1099 16.98 11.2899 16.79C11.6599 16.42 12.3399 16.42 12.7099 16.79C12.8899 16.98 12.9999 17.24 12.9999 17.5C12.9999 17.76 12.8899 18.02 12.7099 18.21ZM12.7099 14.71C12.6599 14.75 12.6099 14.79 12.5599 14.83C12.4999 14.87 12.4399 14.9 12.3799 14.92C12.3199 14.95 12.2599 14.97 12.1999 14.98C12.1299 14.99 12.0699 15 11.9999 15C11.7399 15 11.4799 14.89 11.2899 14.71C11.1099 14.52 10.9999 14.26 10.9999 14C10.9999 13.74 11.1099 13.48 11.2899 13.29C11.3799 13.2 11.4899 13.13 11.6199 13.08C11.9899 12.92 12.4299 13.01 12.7099 13.29C12.8899 13.48 12.9999 13.74 12.9999 14C12.9999 14.26 12.8899 14.52 12.7099 14.71ZM16.2099 18.21C16.0199 18.39 15.7599 18.5 15.4999 18.5C15.2399 18.5 14.9799 18.39 14.7899 18.21C14.6099 18.02 14.4999 17.76 14.4999 17.5C14.4999 17.24 14.6099 16.98 14.7899 16.79C15.1599 16.42 15.8399 16.42 16.2099 16.79C16.3899 16.98 16.4999 17.24 16.4999 17.5C16.4999 17.76 16.3899 18.02 16.2099 18.21ZM16.2099 14.71C16.1599 14.75 16.1099 14.79 16.0599 14.83C15.9999 14.87 15.9399 14.9 15.8799 14.92C15.8199 14.95 15.7599 14.97 15.6999 14.98C15.6299 14.99 15.5599 15 15.4999 15C15.2399 15 14.9799 14.89 14.7899 14.71C14.6099 14.52 14.4999 14.26 14.4999 14C14.4999 13.74 14.6099 13.48 14.7899 13.29C14.8899 13.2 14.9899 13.13 15.1199 13.08C15.2999 13 15.4999 12.98 15.6999 13.02C15.7599 13.03 15.8199 13.05 15.8799 13.08C15.9399 13.1 15.9999 13.13 16.0599 13.17C16.1099 13.21 16.1599 13.25 16.2099 13.29C16.3899 13.48 16.4999 13.74 16.4999 14C16.4999 14.26 16.3899 14.52 16.2099 14.71Z" fill="#A0AAB8"/>
</svg>
