<svg width="333" height="90" viewBox="0 0 333 90" fill="none" xmlns="http://www.w3.org/2000/svg">
<circle cx="44.8" cy="44.8" r="44.8" fill="white"/>
<rect x="45.6152" y="17.92" width="11.52" height="37.12" rx="5.76" transform="rotate(38.7121 45.6152 17.92)" fill="#EB5E00"/>
<rect x="58.5173" y="36.0047" width="11.52" height="37.12" rx="5.76" transform="rotate(38.7121 58.5173 36.0047)" fill="#EB5E00"/>
<path d="M136.98 68.8H124.905L132.911 31.1312H119.261L121.328 21.4516H160.67L158.603 31.1312H144.953L136.98 68.8ZM183.606 30.4094C176.158 30.4094 170.219 38.5797 170.219 48.6531C170.219 55.4453 173.861 59.8422 179.472 59.8422C186.953 59.8422 192.892 51.7047 192.892 41.5984C192.892 34.7406 189.217 30.4094 183.606 30.4094ZM179.144 69.6203C166.019 69.6203 158.013 61.0562 158.013 49.3422C158.013 32.4109 169.366 20.6312 183.869 20.6312C197.256 20.6312 205.099 29.2281 205.099 40.9094C205.099 57.8734 193.614 69.6203 179.144 69.6203ZM208.281 54.4609L210.381 44.5516H231.709L229.609 54.4609H208.281ZM243.391 21.4516H261.667C273.02 21.4516 280.764 28.2437 280.764 39.8266C280.764 56.7578 270.691 68.8 255.695 68.8H233.317L243.391 21.4516ZM253.464 31.0984L247.525 59.1531H254.055C262.422 59.1531 268.394 52.2625 268.394 41.3359C268.394 35.0031 264.981 31.0984 258.911 31.0984H253.464ZM310.722 30.4094C303.274 30.4094 297.334 38.5797 297.334 48.6531C297.334 55.4453 300.977 59.8422 306.588 59.8422C314.069 59.8422 320.008 51.7047 320.008 41.5984C320.008 34.7406 316.333 30.4094 310.722 30.4094ZM306.259 69.6203C293.134 69.6203 285.128 61.0562 285.128 49.3422C285.128 32.4109 296.481 20.6312 310.984 20.6312C324.372 20.6312 332.214 29.2281 332.214 40.9094C332.214 57.8734 320.73 69.6203 306.259 69.6203Z" fill="white"/>
</svg>
