<svg width="100" height="27" viewBox="0 0 100 27" fill="none" xmlns="http://www.w3.org/2000/svg">
<circle cx="13.44" cy="13.44" r="13.44" fill="#EB5E00"/>
<rect x="13.6846" y="5.37604" width="3.456" height="11.136" rx="1.728" transform="rotate(38.7121 13.6846 5.37604)" fill="white"/>
<rect x="17.5552" y="10.8015" width="3.456" height="11.136" rx="1.728" transform="rotate(38.7121 17.5552 10.8015)" fill="white"/>
<path d="M41.0939 20.4401H37.4714L39.8732 9.13944H35.7782L36.3984 6.23553H48.2011L47.5809 9.13944H43.4859L41.0939 20.4401ZM55.0818 8.92288C52.8473 8.92288 51.0656 11.374 51.0656 14.396C51.0656 16.4337 52.1582 17.7527 53.8415 17.7527C56.0859 17.7527 57.8676 15.3115 57.8676 12.2796C57.8676 10.2223 56.7651 8.92288 55.0818 8.92288ZM53.7431 20.6862C49.8056 20.6862 47.4037 18.1169 47.4037 14.6027C47.4037 9.52334 50.8097 5.98944 55.1606 5.98944C59.1768 5.98944 61.5295 8.5685 61.5295 12.0729C61.5295 17.1621 58.0842 20.6862 53.7431 20.6862ZM62.4843 16.1383L63.1143 13.1655H69.5128L68.8828 16.1383H62.4843ZM73.0172 6.23553H78.5001C81.9061 6.23553 84.2292 8.27319 84.2292 11.748C84.2292 16.8274 81.2072 20.4401 76.7086 20.4401H69.9951L73.0172 6.23553ZM76.0392 9.12959L74.2575 17.546H76.2164C78.7265 17.546 80.5181 15.4788 80.5181 12.2008C80.5181 10.301 79.4943 9.12959 77.6732 9.12959H76.0392ZM93.2165 8.92288C90.982 8.92288 89.2003 11.374 89.2003 14.396C89.2003 16.4337 90.2929 17.7527 91.9762 17.7527C94.2206 17.7527 96.0023 15.3115 96.0023 12.2796C96.0023 10.2223 94.8998 8.92288 93.2165 8.92288ZM91.8778 20.6862C87.9403 20.6862 85.5384 18.1169 85.5384 14.6027C85.5384 9.52334 88.9443 5.98944 93.2953 5.98944C97.3115 5.98944 99.6642 8.5685 99.6642 12.0729C99.6642 17.1621 96.2189 20.6862 91.8778 20.6862Z" fill="#EB5E00"/>
</svg>
