<svg width="12" height="14" viewBox="0 0 12 14" fill="none" xmlns="http://www.w3.org/2000/svg">
<path d="M8.64999 0.650024V3.31669M3.31666 0.650024V3.31669M0.649994 5.98336H11.3167M0.649994 3.31669C0.649994 2.96307 0.79047 2.62393 1.04052 2.37388C1.29057 2.12383 1.62971 1.98336 1.98333 1.98336H9.98333C10.3369 1.98336 10.6761 2.12383 10.9261 2.37388C11.1762 2.62393 11.3167 2.96307 11.3167 3.31669V11.3167C11.3167 11.6703 11.1762 12.0095 10.9261 12.2595C10.6761 12.5095 10.3369 12.65 9.98333 12.65H1.98333C1.62971 12.65 1.29057 12.5095 1.04052 12.2595C0.79047 12.0095 0.649994 11.6703 0.649994 11.3167V3.31669ZM5.31666 9.31669C5.31666 9.4935 5.3869 9.66307 5.51192 9.7881C5.63695 9.91312 5.80652 9.98336 5.98333 9.98336C6.16014 9.98336 6.32971 9.91312 6.45473 9.7881C6.57976 9.66307 6.64999 9.4935 6.64999 9.31669C6.64999 9.13988 6.57976 8.97031 6.45473 8.84529C6.32971 8.72026 6.16014 8.65002 5.98333 8.65002C5.80652 8.65002 5.63695 8.72026 5.51192 8.84529C5.3869 8.97031 5.31666 9.13988 5.31666 9.31669Z" stroke="#ACB5BB" stroke-width="1.3" stroke-linecap="round" stroke-linejoin="round"/>
</svg>
