<svg width="24" height="24" viewBox="0 0 24 24" fill="none" xmlns="http://www.w3.org/2000/svg">
<path d="M11.5129 1.9187C6.22655 1.9187 1.91882 6.22643 1.91882 11.5127C1.91882 16.7991 6.22655 21.1068 11.5129 21.1068C16.7992 21.1068 21.1069 16.7991 21.1069 11.5127C21.1069 6.22643 16.7992 1.9187 11.5129 1.9187ZM15.6863 14.9378C15.552 15.1681 15.3121 15.2928 15.0627 15.2928C14.9379 15.2928 14.8132 15.264 14.6981 15.1873L11.7239 13.4124C10.9852 12.971 10.4383 12.002 10.4383 11.1482V7.21461C10.4383 6.82126 10.7645 6.49506 11.1579 6.49506C11.5512 6.49506 11.8774 6.82126 11.8774 7.21461V11.1482C11.8774 11.4936 12.1653 12.002 12.4627 12.1747L15.4368 13.9496C15.7822 14.1511 15.8973 14.5924 15.6863 14.9378Z" fill="#A0AAB8"/>
</svg>
