<svg width="24" height="24" viewBox="0 0 24 24" fill="none" xmlns="http://www.w3.org/2000/svg">
<path d="M17.2884 11.8293L16.1179 10.6589C15.8397 10.419 15.6766 10.064 15.667 9.67069C15.6478 9.23896 15.8205 8.80722 16.1371 8.49062L17.2884 7.33933C18.2862 6.34155 18.6603 5.38215 18.3437 4.62422C18.0367 3.87589 17.0869 3.46334 15.6862 3.46334H5.66042V2.63825C5.66042 2.2449 5.33422 1.9187 4.94087 1.9187C4.54751 1.9187 4.22131 2.2449 4.22131 2.63825V20.3872C4.22131 20.7806 4.54751 21.1068 4.94087 21.1068C5.33422 21.1068 5.66042 20.7806 5.66042 20.3872V15.7053H15.6862C17.0677 15.7053 17.9984 15.2832 18.315 14.5253C18.6316 13.7673 18.267 12.8175 17.2884 11.8293Z" fill="#A0AAB8"/>
</svg>
