<svg width="28" height="28" viewBox="0 0 28 28" fill="none" xmlns="http://www.w3.org/2000/svg">
<path d="M20.8037 9.79749L10.9487 4.86999C4.32881 1.55429 1.61177 4.27133 4.92747 10.8912L5.92909 12.8944C6.21691 13.4816 6.21691 14.1609 5.92909 14.748L4.92747 16.7397C1.61177 23.3596 4.31729 26.0767 10.9487 22.761L20.8037 17.8335C25.2246 15.623 25.2246 12.008 20.8037 9.79749ZM17.085 14.6789H10.8681C10.3961 14.6789 10.0046 14.2875 10.0046 13.8155C10.0046 13.3435 10.3961 12.952 10.8681 12.952H17.085C17.5571 12.952 17.9485 13.3435 17.9485 13.8155C17.9485 14.2875 17.5571 14.6789 17.085 14.6789Z" fill="#EB5E00"/>
</svg>
